# xmcd
#
# Track frame offsets:
#	150
#	14203
#	20871
#	34350
#	41223
#	48770
#	56744
#	67484
#	86013
#	93548
#	99508
#	108084
#	115522
#	127161
#
# Disc length: 1853 seconds
#
# Revision: 0
# Processed by: cddbd v1.5.2PL0 Copyright (c) Steve Scherf et al.
# Submitted via: EZCDAudioConverter 5.5.0.1
#
DISCID=ce073b0e
DTITLE=Yleislakko - Hyvästi Kauniit Poutapäivät
DYEAR=2017
DGENRE=
TTITLE0=Vihaa ja ennakkoluuloja
TTITLE1=Oodinin soturit
TTITLE2=Hyvästi Kauniit Poutapäivät
TTITLE3=Rillumarei!
TTITLE4=Lavasteet
TTITLE5=Radio soittaa
TTITLE6=Mun vene vuotaa
TTITLE7=Jarrua puuroon
TTITLE8=Kännikala
TTITLE9=Paljon lauluja tarvitaan
TTITLE10=Varsovan laulu
TTITLE11=Hipsteri kapinaa
TTITLE12=Mannerheimin kuva
TTITLE13=Kun tulee aika (Mä lähden pois)
EXTD=
EXTT0=
EXTT1=
EXTT2=
EXTT3=
EXTT4=
EXTT5=
EXTT6=
EXTT7=
EXTT8=
EXTT9=
EXTT10=
EXTT11=
EXTT12=
EXTT13=
PLAYORDER=
